
        <svg xmlns="http://www.w3.org/2000/svg" xmlns:xlink="http://www.w3.org/1999/xlink" version="1.1" width="3242.8481366679816" 
        height="1014.2109674280877" viewBox="0 0 3242.8481366679816 1014.2109674280877">
			
			<g transform="scale(12.142406833399072) translate(10, 10)">
				<defs id="SvgjsDefs1116"><linearGradient id="SvgjsLinearGradient1121"><stop id="SvgjsStop1122" stop-color="#2d388a" offset="0"></stop><stop id="SvgjsStop1123" stop-color="#00aeef" offset="1"></stop></linearGradient></defs><g id="SvgjsG1117" featureKey="G09qjj-0" transform="matrix(0.8001283647937708,0,0,0.8001283647937708,-2.784050123335935,-7.013967049363754)" fill="url(#SvgjsLinearGradient1121)"><path xmlns="http://www.w3.org/2000/svg" d="M27.4372673,86.4673462c3.6895142,0.0088501,7.3790894,0.0941772,11.0686035,0.1867676l11.0686035,0.3656006  c7.3790283,0.2786255,14.7581215,0.5922852,22.1371498,0.7329712c7.3790894,0.1604614,14.7581177,0.2263794,22.137207,0.3441772  l4.03302,0.0643921l-1.9887085-3.6015625c-3.6509399-6.6117554-7.4446411-13.1950073-11.2976074-19.7351074  c-3.8946533-6.4977417-7.815979-12.9793701-11.7773438-19.3143311  C64.9135895,32.8082275,57.0363884,20.5280762,49.6378899,8.7660522l-11.439209,17.9815063  c-3.8842773,6.1694946-7.8310547,12.4552612-11.7368164,18.875c-3.8988037,6.4174194-7.8268433,12.8974609-11.4794912,19.5803223  c-3.666687,6.6694336-7.1245728,13.3999023-10.6116943,19.9976196l-0.8911746,1.6862183l1.8206179-0.0758057  C12.6791506,86.5036621,20.058239,86.3956909,27.4372673,86.4673462z M17.7866325,67.9033203  c3.7369385-6.1066895,7.1985474-12.4162598,10.6893311-18.7883911c3.4838257-6.369873,6.9266357-12.8736572,10.4320068-19.4937134  L49.6375847,9.2339478l21.0308266,39.9932251c3.4071655,6.4547119,6.8543701,12.7625732,10.3282471,19.0545044  c2.8571777,5.0791626,5.7753296,10.1243286,8.7556763,15.1543579c-6.0136108,0.0844727-12.0270996,0.1556396-18.0407104,0.286377  c-7.3790283,0.1407471-14.7581215,0.4544067-22.1371498,0.7330322l-11.0686035,0.3656006  c-3.6895142,0.0925903-7.3790894,0.1778564-11.0686035,0.1867676c-6.7432251,0.0654907-13.4865103-0.0273438-20.2297363-0.2769165  C10.7871218,79.0751343,14.3745241,73.5125122,17.7866325,67.9033203z"></path></g><g id="SvgjsG1118" featureKey="0yvIkK-0" transform="matrix(1.473546425859387,0,0,1.473546425859387,93.14132002517621,10.809096083738947)" fill="#ffffff"><path d="M6.32 12.08 q1.28 0 2.1 -0.63 t0.84 -1.87 q0 -1.16 -0.82 -1.85 t-2.18 -0.69 l-3 0 l0 5.04 l3.06 0 z M5.98 5.84 q2.16 0 3.36 0.96 t1.24 2.78 q0 1.7 -1.16 2.69 t-3.02 1.01 l-3.14 0 l0 6.72 l-1.32 0 l0 -14.16 l4.04 0 z M17.2 10.52 q0.34 0 0.7 0.1 l-0.14 1.18 q-0.22 -0.08 -0.48 -0.08 q-1.46 0 -2.23 0.9 t-0.77 2.34 l0 5.04 l-1.2 0 l0 -6.74 q0 -0.2 -0.1 -2.5 l1.2 0 q0.04 1.38 0.08 1.62 q1.04 -1.86 2.94 -1.86 z M20.42 15.379999999999999 q0 1.66 1.04 2.72 t2.62 1.06 q1.64 0 2.65 -1.08 t1.01 -2.7 q0 -1.6 -1 -2.68 t-2.68 -1.1 q-1.62 0 -2.62 1.08 t-1.02 2.7 z M24.080000000000002 10.52 q2.12 0 3.48 1.38 t1.38 3.48 q0 2.14 -1.39 3.49 t-3.47 1.37 q-2.18 -0.02 -3.51 -1.4 t-1.35 -3.46 q0 -2.14 1.37 -3.49 t3.49 -1.37 z M32.300000000000004 15.379999999999999 q0 1.66 1.04 2.72 t2.62 1.06 q1.56 0 2.69 -1.07 t1.17 -2.71 q0 -1.56 -1.11 -2.66 t-2.77 -1.12 q-1.56 0 -2.59 1.06 t-1.05 2.72 z M39.7 4.880000000000001 l1.2 0 l0 15.12 l-1.2 0 l0 -1.62 l-0.04 0 q-0.5 0.88 -1.53 1.37 t-2.17 0.49 q-2.06 0 -3.44 -1.35 t-1.42 -3.51 q0 -2.06 1.35 -3.44 t3.51 -1.42 q1.18 0 2.18 0.49 t1.52 1.37 l0.04 0 l0 -7.5 z M44.04 10.76 l1.2 0 l0 9.24 l-1.2 0 l0 -9.24 z M44.64 6.199999999999999 q0.4 0 0.65 0.26 t0.25 0.64 t-0.25 0.64 t-0.65 0.26 q-0.38 0 -0.64 -0.26 t-0.26 -0.64 t0.26 -0.64 t0.64 -0.26 z M49.44 15.26 q0 1.52 1.07 2.57 t2.59 1.09 q1.5 0 2.56 -1.06 t1.1 -2.6 q0 -1.52 -1.08 -2.58 t-2.6 -1.08 q-1.52 0 -2.58 1.09 t-1.06 2.57 z M53.18 10.52 q2.36 0.02 3.5 1.8 l0.04 0 l0 -1.56 l1.2 0 l0 8.6 q0 2.7 -1.3 4.07 t-3.64 1.37 q-1.4 0 -2.62 -0.51 t-1.94 -1.43 l0.94 -0.88 q1.24 1.74 3.64 1.74 q3.72 0 3.72 -4.14 l0 -1.38 l-0.04 0 q-1.12 1.76 -3.5 1.8 q-2 0 -3.44 -1.37 t-1.5 -3.37 q0 -1.96 1.47 -3.34 t3.47 -1.4 z M60.9 10.76 l3.06 7.78 l2.98 -7.78 l1.28 0 l-4.74 12.06 q-0.78 1.98 -2.56 1.98 q-0.56 0 -1.18 -0.18 l0.12 -1.12 q0.66 0.22 1.08 0.22 q0.46 0 0.82 -0.32 t0.7 -1.16 l0.86 -2.2 l-3.76 -9.28 l1.34 0 z M71.78 5.84 l0 6.24 l7.92 0 l0 -6.24 l1.32 0 l0 14.16 l-1.32 0 l0 -6.72 l-7.92 0 l0 6.72 l-1.32 0 l0 -14.16 l1.32 0 z M84.75999999999999 10.76 l1.2 0 l0 9.24 l-1.2 0 l0 -9.24 z M85.36 6.199999999999999 q0.4 0 0.65 0.26 t0.25 0.64 t-0.25 0.64 t-0.65 0.26 q-0.38 0 -0.64 -0.26 t-0.26 -0.64 t0.26 -0.64 t0.64 -0.26 z M93.47999999999999 10.52 q0.34 0 0.7 0.1 l-0.14 1.18 q-0.22 -0.08 -0.48 -0.08 q-1.46 0 -2.23 0.9 t-0.77 2.34 l0 5.04 l-1.2 0 l0 -6.74 q0 -0.2 -0.1 -2.5 l1.2 0 q0.04 1.38 0.08 1.62 q1.04 -1.86 2.94 -1.86 z M103.25999999999999 14.6 q0 -1.26 -0.94 -2.13 t-2.28 -0.87 q-1.3 0 -2.24 0.87 t-1.1 2.13 l6.56 0 z M100.11999999999999 10.52 q1.92 0 3.12 1.24 t1.22 3.2 l0 0.72 l-7.76 0 q0.08 1.56 1.03 2.51 t2.47 0.97 q0.94 0 1.79 -0.45 t1.31 -1.19 l0.88 0.74 q-1.3 1.98 -4 1.98 q-2.12 -0.02 -3.39 -1.38 t-1.29 -3.5 q0 -2.08 1.31 -3.45 t3.31 -1.39 z"></path></g>
			</g>
		</svg>
	