<?xml version="1.0" encoding="UTF-8"?>
<svg xmlns="http://www.w3.org/2000/svg" xmlns:xlink="http://www.w3.org/1999/xlink" width="300" height="50" viewBox="0 0 1081 338" version="1.1">
<g id="surface1">
<path style=" stroke:none;fill-rule:nonzero;fill:rgb(0%,0%,0%);fill-opacity:1;" d="M 118.0625 292.109375 C 130.011719 292.136719 141.957031 292.414062 153.90625 292.714844 L 189.753906 293.898438 C 213.648438 294.800781 237.546875 295.816406 261.445312 296.273438 C 285.339844 296.792969 309.238281 297.003906 333.136719 297.386719 L 346.195312 297.59375 L 339.753906 285.933594 C 327.933594 264.519531 315.644531 243.199219 303.167969 222.019531 C 290.554688 200.976562 277.855469 179.988281 265.027344 159.46875 C 239.429688 118.335938 213.917969 78.566406 189.957031 40.476562 L 152.914062 98.707031 C 140.332031 118.6875 127.550781 139.042969 114.902344 159.835938 C 102.277344 180.617188 89.554688 201.601562 77.726562 223.246094 C 65.851562 244.84375 54.652344 266.640625 43.359375 288.007812 L 40.476562 293.46875 L 46.371094 293.222656 C 70.269531 292.226562 94.164062 291.878906 118.0625 292.109375 Z M 86.808594 231.992188 C 98.910156 212.214844 110.121094 191.78125 121.425781 171.144531 C 132.707031 150.515625 143.859375 129.453125 155.210938 108.015625 L 189.957031 41.988281 L 258.066406 171.507812 C 269.101562 192.410156 280.261719 212.839844 291.511719 233.214844 C 300.765625 249.664062 310.21875 266.003906 319.867188 282.292969 C 300.394531 282.566406 280.917969 282.796875 261.445312 283.21875 C 237.546875 283.675781 213.648438 284.691406 189.753906 285.59375 L 153.90625 286.777344 C 141.957031 287.078125 130.011719 287.355469 118.0625 287.382812 C 96.222656 287.59375 74.386719 287.292969 52.546875 286.488281 C 64.140625 268.171875 75.757812 250.15625 86.808594 231.992188 Z M 86.808594 231.992188 "/>
<path style=" stroke:none;fill-rule:nonzero;fill:rgb(0%,0%,0%);fill-opacity:1;" d="M 455.15625 156.269531 C 460.242188 156.269531 464.417969 155.019531 467.679688 152.511719 C 470.941406 150.007812 472.609375 146.289062 472.6875 141.359375 C 472.6875 136.75 471.058594 133.070312 467.796875 130.328125 C 464.539062 127.582031 460.203125 126.210938 454.796875 126.210938 L 436.90625 126.210938 L 436.90625 156.269531 Z M 453.125 119.054688 C 461.714844 119.054688 468.394531 120.964844 473.167969 124.78125 C 477.9375 128.597656 480.402344 134.125 480.5625 141.359375 C 480.5625 148.121094 478.253906 153.46875 473.644531 157.402344 C 469.03125 161.339844 463.027344 163.347656 455.632812 163.429688 L 436.90625 163.429688 L 436.90625 203.507812 L 429.03125 203.507812 L 429.03125 119.054688 Z M 520.042969 146.96875 C 521.394531 146.96875 522.789062 147.164062 524.21875 147.5625 L 523.382812 154.601562 C 522.507812 154.28125 521.554688 154.125 520.523438 154.125 C 514.714844 154.125 510.28125 155.914062 507.222656 159.492188 C 504.160156 163.070312 502.628906 167.722656 502.628906 173.449219 L 502.628906 203.507812 L 495.472656 203.507812 L 495.472656 163.308594 C 495.472656 162.511719 495.273438 157.542969 494.875 148.398438 L 502.03125 148.398438 C 502.191406 153.886719 502.351562 157.105469 502.511719 158.058594 C 506.644531 150.664062 512.488281 146.96875 520.042969 146.96875 Z M 539.25 175.953125 C 539.25 182.554688 541.316406 187.960938 545.453125 192.175781 C 549.585938 196.390625 554.796875 198.496094 561.078125 198.496094 C 567.597656 198.496094 572.867188 196.351562 576.882812 192.054688 C 580.898438 187.761719 582.90625 182.394531 582.90625 175.953125 C 582.90625 169.589844 580.917969 164.261719 576.941406 159.96875 C 572.964844 155.675781 567.636719 153.488281 560.957031 153.40625 C 554.515625 153.40625 549.308594 155.554688 545.332031 159.847656 C 541.355469 164.144531 539.328125 169.511719 539.25 175.953125 Z M 561.078125 146.96875 C 569.507812 146.96875 576.425781 149.710938 581.832031 155.199219 C 587.242188 160.683594 589.984375 167.601562 590.0625 175.953125 C 590.0625 184.460938 587.300781 191.398438 581.773438 196.765625 C 576.246094 202.136719 569.347656 204.859375 561.078125 204.9375 C 552.410156 204.859375 545.433594 202.074219 540.144531 196.589844 C 534.855469 191.101562 532.171875 184.222656 532.09375 175.953125 C 532.09375 167.445312 534.816406 160.503906 540.261719 155.136719 C 545.710938 149.769531 552.648438 147.046875 561.078125 146.96875 Z M 610.101562 175.953125 C 610.101562 182.554688 612.171875 187.960938 616.304688 192.175781 C 620.441406 196.390625 625.648438 198.496094 631.929688 198.496094 C 638.132812 198.496094 643.480469 196.371094 647.976562 192.117188 C 652.46875 187.859375 654.792969 182.472656 654.953125 175.953125 C 654.953125 169.75 652.746094 164.460938 648.332031 160.089844 C 643.917969 155.714844 638.414062 153.488281 631.8125 153.40625 C 625.609375 153.40625 620.460938 155.515625 616.363281 159.730469 C 612.269531 163.945312 610.183594 169.351562 610.101562 175.953125 Z M 654.238281 113.328125 L 661.394531 113.328125 L 661.394531 203.507812 L 654.238281 203.507812 L 654.238281 193.84375 L 654 193.84375 C 652.011719 197.34375 648.96875 200.066406 644.875 202.015625 C 640.777344 203.964844 636.464844 204.9375 631.929688 204.9375 C 623.742188 204.9375 616.902344 202.253906 611.414062 196.886719 C 605.929688 191.519531 603.105469 184.539062 602.945312 175.953125 C 602.945312 167.761719 605.628906 160.921875 610.996094 155.4375 C 616.363281 149.949219 623.34375 147.125 631.929688 146.96875 C 636.625 146.96875 640.957031 147.941406 644.933594 149.890625 C 648.910156 151.835938 651.929688 154.5625 654 158.058594 L 654.238281 158.058594 Z M 680.121094 148.398438 L 687.277344 148.398438 L 687.277344 203.507812 L 680.121094 203.507812 Z M 683.699219 121.203125 C 685.289062 121.203125 686.582031 121.71875 687.578125 122.753906 C 688.570312 123.785156 689.066406 125.058594 689.066406 126.570312 C 689.066406 128.082031 688.570312 129.351562 687.578125 130.386719 C 686.582031 131.421875 685.289062 131.9375 683.699219 131.9375 C 682.1875 131.9375 680.917969 131.421875 679.882812 130.386719 C 678.847656 129.351562 678.332031 128.082031 678.332031 126.570312 C 678.332031 125.058594 678.847656 123.785156 679.882812 122.753906 C 680.917969 121.71875 682.1875 121.203125 683.699219 121.203125 Z M 712.328125 175.238281 C 712.328125 181.28125 714.457031 186.390625 718.710938 190.566406 C 722.964844 194.738281 728.113281 196.90625 734.15625 197.066406 C 740.121094 197.066406 745.210938 194.957031 749.425781 190.742188 C 753.640625 186.527344 755.828125 181.359375 755.984375 175.238281 C 755.984375 169.191406 753.839844 164.0625 749.542969 159.847656 C 745.25 155.632812 740.082031 153.488281 734.039062 153.40625 C 727.992188 153.40625 722.863281 155.574219 718.648438 159.910156 C 714.433594 164.242188 712.328125 169.351562 712.328125 175.238281 Z M 734.632812 146.96875 C 744.015625 147.046875 750.976562 150.625 755.507812 157.703125 L 755.746094 157.703125 L 755.746094 148.398438 L 762.902344 148.398438 L 762.902344 199.691406 C 762.902344 210.425781 760.320312 218.515625 755.152344 223.964844 C 749.980469 229.410156 742.746094 232.132812 733.441406 232.132812 C 727.875 232.132812 722.664062 231.121094 717.816406 229.09375 C 712.964844 227.066406 709.105469 224.222656 706.246094 220.5625 L 711.851562 215.316406 C 716.78125 222.234375 724.019531 225.695312 733.558594 225.695312 C 748.351562 225.695312 755.746094 217.464844 755.746094 201 L 755.746094 192.769531 L 755.507812 192.769531 C 751.054688 199.769531 744.097656 203.347656 734.632812 203.507812 C 726.683594 203.507812 719.84375 200.785156 714.117188 195.335938 C 708.390625 189.890625 705.410156 183.1875 705.171875 175.238281 C 705.171875 167.445312 708.09375 160.804688 713.9375 155.316406 C 719.785156 149.828125 726.683594 147.046875 734.632812 146.96875 Z M 780.675781 148.398438 L 798.925781 194.800781 L 816.699219 148.398438 L 824.335938 148.398438 L 796.066406 220.324219 C 792.964844 228.199219 787.875 232.132812 780.796875 232.132812 C 778.570312 232.132812 776.222656 231.777344 773.757812 231.0625 L 774.472656 224.382812 C 777.097656 225.257812 779.246094 225.695312 780.914062 225.695312 C 782.746094 225.695312 784.375 225.058594 785.804688 223.785156 C 787.238281 222.511719 788.628906 220.207031 789.980469 216.867188 L 795.109375 203.746094 L 772.683594 148.398438 Z M 845.566406 119.054688 L 845.566406 156.269531 L 892.800781 156.269531 L 892.800781 119.054688 L 900.675781 119.054688 L 900.675781 203.507812 L 892.800781 203.507812 L 892.800781 163.429688 L 845.566406 163.429688 L 845.566406 203.507812 L 837.695312 203.507812 L 837.695312 119.054688 Z M 922.980469 148.398438 L 930.136719 148.398438 L 930.136719 203.507812 L 922.980469 203.507812 Z M 926.558594 121.203125 C 928.148438 121.203125 929.441406 121.71875 930.4375 122.753906 C 931.429688 123.785156 931.925781 125.058594 931.925781 126.570312 C 931.925781 128.082031 931.429688 129.351562 930.4375 130.386719 C 929.441406 131.421875 928.148438 131.9375 926.558594 131.9375 C 925.046875 131.9375 923.777344 131.421875 922.742188 130.386719 C 921.707031 129.351562 921.191406 128.082031 921.191406 126.570312 C 921.191406 125.058594 921.707031 123.785156 922.742188 122.753906 C 923.777344 121.71875 925.046875 121.203125 926.558594 121.203125 Z M 974.988281 146.96875 C 976.339844 146.96875 977.730469 147.164062 979.164062 147.5625 L 978.328125 154.601562 C 977.453125 154.28125 976.5 154.125 975.464844 154.125 C 969.660156 154.125 965.226562 155.914062 962.164062 159.492188 C 959.105469 163.070312 957.574219 167.722656 957.574219 173.449219 L 957.574219 203.507812 L 950.417969 203.507812 L 950.417969 163.308594 C 950.417969 162.511719 950.21875 157.542969 949.820312 148.398438 L 956.976562 148.398438 C 957.136719 153.886719 957.292969 157.105469 957.453125 158.058594 C 961.589844 150.664062 967.433594 146.96875 974.988281 146.96875 Z M 1033.316406 171.300781 C 1033.316406 166.289062 1031.449219 162.054688 1027.710938 158.597656 C 1023.972656 155.136719 1019.441406 153.40625 1014.113281 153.40625 C 1008.945312 153.40625 1004.492188 155.136719 1000.753906 158.597656 C 997.015625 162.054688 994.828125 166.289062 994.191406 171.300781 Z M 1014.589844 146.96875 C 1022.222656 146.96875 1028.425781 149.433594 1033.199219 154.363281 C 1037.96875 159.292969 1040.394531 165.65625 1040.476562 173.449219 L 1040.476562 177.742188 L 994.191406 177.742188 C 994.511719 183.945312 996.558594 188.933594 1000.335938 192.710938 C 1004.113281 196.488281 1009.023438 198.417969 1015.066406 198.496094 C 1018.804688 198.496094 1022.363281 197.601562 1025.742188 195.8125 C 1029.121094 194.023438 1031.726562 191.65625 1033.554688 188.714844 L 1038.804688 193.128906 C 1033.636719 201 1025.683594 204.9375 1014.949219 204.9375 C 1006.519531 204.859375 999.78125 202.113281 994.730469 196.707031 C 989.679688 191.300781 987.117188 184.34375 987.035156 175.832031 C 987.035156 167.5625 989.640625 160.703125 994.847656 155.257812 C 1000.058594 149.808594 1006.636719 147.046875 1014.589844 146.96875 Z M 1014.589844 146.96875 "/>
</g>
</svg>
